<?xml version="1.0" standalone="no"?>
<!DOCTYPE svg PUBLIC "-//W3C//DTD SVG 20010904//EN"
 "http://www.w3.org/TR/2001/REC-SVG-20010904/DTD/svg10.dtd">
<svg version="1.0" xmlns="http://www.w3.org/2000/svg"
 width="200.000000pt" height="200.000000pt" viewBox="0 0 200.000000 200.000000"
 preserveAspectRatio="xMidYMid meet">
<metadata>
Created by potrace 1.15, written by Peter Selinger 2001-2017
</metadata>
<g transform="translate(0.000000,200.000000) scale(0.100000,-0.100000)"
fill="#000000" stroke="none">
<path d="M312 1638 c-17 -17 -17 -249 0 -266 7 -7 21 -12 33 -12 37 0 45 19
45 112 l0 88 88 0 c90 0 112 8 112 41 0 41 -26 49 -149 49 -78 0 -121 -4 -129
-12z"/>
<path d="M742 1638 c-17 -17 -15 -65 4 -72 9 -3 125 -6 258 -6 175 0 245 3
254 12 15 15 15 51 0 66 -17 17 -499 17 -516 0z"/>
<path d="M1426 1634 c-9 -8 -16 -23 -16 -33 0 -33 22 -41 112 -41 l88 0 0 -88
c0 -55 4 -92 12 -100 15 -15 51 -15 66 0 17 17 17 249 0 266 -8 8 -51 12 -129
12 -94 0 -121 -3 -133 -16z"/>
<path d="M318 1239 c-16 -9 -18 -31 -18 -239 0 -216 1 -230 19 -240 27 -14 37
-13 55 6 24 23 24 445 0 468 -18 18 -32 20 -56 5z"/>
<path d="M1626 1234 c-14 -13 -16 -49 -16 -234 0 -185 2 -221 16 -234 18 -19
28 -20 55 -6 18 10 19 24 19 240 0 216 -1 230 -19 240 -27 14 -37 13 -55 -6z"/>
<path d="M312 628 c-17 -17 -17 -249 0 -266 8 -8 51 -12 129 -12 123 0 149 8
149 49 0 33 -22 41 -112 41 l-88 0 0 88 c0 93 -8 112 -45 112 -12 0 -26 -5
-33 -12z"/>
<path d="M1622 628 c-8 -8 -12 -45 -12 -100 l0 -88 -88 0 c-90 0 -112 -8 -112
-41 0 -41 26 -49 149 -49 78 0 121 4 129 12 8 8 12 52 12 133 0 127 -6 145
-45 145 -12 0 -26 -5 -33 -12z"/>
<path d="M743 433 c-16 -6 -17 -55 -1 -71 17 -17 499 -17 516 0 15 15 15 51 0
66 -9 9 -79 12 -257 11 -136 0 -252 -3 -258 -6z"/>
</g>
</svg>
