<?xml version="1.0" encoding="UTF-8" standalone="no"?>
<svg
   xmlns:dc="http://purl.org/dc/elements/1.1/"
   xmlns:cc="http://creativecommons.org/ns#"
   xmlns:rdf="http://www.w3.org/1999/02/22-rdf-syntax-ns#"
   xmlns:svg="http://www.w3.org/2000/svg"
   xmlns="http://www.w3.org/2000/svg"
   id="svg8"
   version="1.1"
   viewBox="0 0 2048 2048"
   height="2048"
   width="2048">
  <defs
     id="defs2" />
  <metadata
     id="metadata5">
    <rdf:RDF>
      <cc:Work
         rdf:about="">
        <dc:format>image/svg+xml</dc:format>
        <dc:type
           rdf:resource="http://purl.org/dc/dcmitype/StillImage" />
        <dc:title></dc:title>
      </cc:Work>
    </rdf:RDF>
  </metadata>
  <g
     transform="translate(0,244.86668)"
     id="layer1">
    <path
       style="stroke-width:0.26458335"
       d="m 312.91082,378.26368 691.91028,336.8792 c 20.1985,9.85102 43.0405,9.85102 63.2386,0 l 691.9104,-336.8792 c 49.1596,-23.9421 49.1596,-103.67474 0,-127.61684 L 1068.0896,-86.264234 a 76.061442,81.635898 0 0 0 -63.2387,0 L 312.91082,250.61493 c -49.15914,23.94214 -49.15914,103.70665 0,127.64875 z M 1759.9999,659.70305 1587.453,575.76218 1107.3278,809.34919 c -22.456,10.93494 -46.3078,16.48212 -70.8723,16.48212 -24.5648,0 -48.38675,-5.54718 -70.87219,-16.48212 L 485.48747,575.76218 312.91082,659.70305 c -49.15914,23.91023 -49.15914,103.61096 0,127.52118 l 691.91028,336.62417 c 20.1985,9.8192 43.0405,9.8192 63.2386,0 l 691.9402,-336.62417 c 49.1592,-23.91022 49.1592,-103.61095 0,-127.52118 z m 0,407.43025 -171.8933,-83.62202 -480.7788,233.90582 c -22.456,10.9349 -46.3078,16.4822 -70.8723,16.4822 -24.5648,0 -48.38675,-5.5473 -70.87219,-16.4822 L 484.83398,983.51128 312.91082,1067.1333 c -49.15914,23.9103 -49.15914,103.611 0,127.5212 l 691.91028,336.6242 c 20.1985,9.8191 43.0405,9.8191 63.2386,0 l 691.9402,-336.6242 c 49.1592,-23.9102 49.1592,-103.6109 0,-127.5212 z"
       id="path815" />
  </g>
</svg>
