<?xml version="1.0" standalone="no"?>
<!DOCTYPE svg PUBLIC "-//W3C//DTD SVG 20010904//EN"
 "http://www.w3.org/TR/2001/REC-SVG-20010904/DTD/svg10.dtd">
<svg version="1.0" xmlns="http://www.w3.org/2000/svg"
 width="200.000000pt" height="200.000000pt" viewBox="0 0 200.000000 200.000000"
 preserveAspectRatio="xMidYMid meet">
<metadata>
Created by potrace 1.15, written by Peter Selinger 2001-2017
</metadata>
<g transform="translate(0.000000,200.000000) scale(0.100000,-0.100000)"
fill="#000000" stroke="none">
<path d="M1380 1460 c-111 -132 -207 -240 -213 -240 -6 0 -179 77 -384 171
-207 94 -383 169 -395 167 -52 -8 -46 -22 151 -400 105 -202 191 -370 191
-373 0 -4 -11 -20 -25 -36 -68 -82 -23 -213 87 -251 l37 -13 -40 -69 c-47 -81
-48 -110 -4 -114 28 -3 33 3 83 88 29 50 61 93 70 96 87 28 144 76 157 133 6
29 11 31 268 117 144 47 268 93 275 102 16 20 18 813 2 843 -26 48 -50 28
-260 -221z m183 -571 c-5 -3 -115 -42 -245 -85 l-237 -78 -20 26 c-36 45 -98
68 -182 68 l-74 0 -157 303 c-87 166 -154 303 -150 305 4 1 155 -65 335 -148
180 -82 338 -150 351 -150 19 0 63 47 202 212 l179 212 3 -329 c1 -181 -1
-332 -5 -336z m-634 -149 c45 -13 91 -57 91 -88 0 -24 -52 -82 -74 -82 -14 0
-98 159 -90 171 7 12 31 11 73 -1z"/>
</g>
</svg>
